<?xml version="1.0" standalone="no"?>
<!DOCTYPE svg PUBLIC "-//W3C//DTD SVG 20010904//EN"
 "http://www.w3.org/TR/2001/REC-SVG-20010904/DTD/svg10.dtd">
<svg version="1.0" xmlns="http://www.w3.org/2000/svg"
 width="400.000000pt" height="400.000000pt" viewBox="0 0 400.000000 400.000000"
 preserveAspectRatio="xMidYMid meet">

<g transform="translate(0.000000,400.000000) scale(0.100000,-0.100000)"
fill="#000000" stroke="none">
<path d="M2182 3593 c-81 -119 -155 -220 -163 -225 -8 -5 -32 -16 -54 -25
l-40 -16 35 -8 c32 -7 38 -5 68 29 l33 37 -5 -30 c-2 -16 -8 -39 -12 -49 -6
-16 -4 -18 12 -11 10 4 36 10 57 13 34 4 37 7 37 36 0 17 4 46 9 63 l10 33
-29 -15 c-37 -19 -64 -20 -57 -1 3 8 27 45 54 82 27 38 77 113 113 166 36 54
68 98 73 98 4 0 7 -27 7 -59 0 -56 -2 -60 -28 -69 -21 -7 -31 -20 -41 -51 -40
-135 -13 -297 65 -391 50 -59 153 -48 314 36 135 69 172 113 134 160 -15 18
-15 12 1 -28 7 -17 -33 -68 -53 -68 -22 0 -128 128 -140 167 -13 42 -12 46 23
138 4 11 -18 -8 -50 -43 -70 -76 -106 -98 -138 -81 -12 6 -33 21 -46 33 l-24
21 6 -47 c6 -46 5 -48 -21 -54 -46 -10 -48 -12 -11 -13 33 -1 39 -6 81 -73 26
-40 45 -74 43 -76 -2 -2 -19 8 -39 23 -19 14 -56 35 -83 45 -43 16 -49 22 -60
61 -12 45 -9 114 8 181 7 27 19 42 39 53 29 15 30 17 30 95 0 44 -2 80 -4 80
-3 0 -72 -98 -154 -217z m380 -72 c-7 -49 17 -99 81 -168 58 -62 60 -66 42
-79 -27 -20 -37 -14 -53 34 -15 46 -72 108 -125 137 l-35 19 46 42 c26 24 47
43 48 44 0 0 -1 -13 -4 -29z"/>
<path d="M2870 3477 c-25 -23 -55 -48 -65 -54 -17 -10 -15 -11 10 -2 17 6 42
22 57 36 l27 26 -2 -44 c-1 -24 2 -61 6 -81 6 -30 5 -38 -7 -38 -23 0 -75 -49
-96 -91 -25 -48 -26 -131 -4 -208 39 -135 63 -161 146 -161 92 0 296 75 367
135 39 33 61 80 61 127 0 28 6 36 42 56 23 12 43 20 45 18 5 -4 -101 -208
-127 -246 -10 -14 -33 -54 -51 -90 -30 -58 -34 -62 -37 -37 -4 33 -5 33 -65 5
-37 -18 -46 -27 -42 -43 3 -11 5 -32 5 -48 l0 -28 31 16 c31 16 31 16 24 -7
-7 -21 -5 -20 15 5 35 43 232 401 265 481 18 42 17 42 -49 -6 -21 -15 -45 -28
-53 -28 -8 0 -13 -13 -13 -37 0 -47 -33 -116 -66 -138 -26 -17 -88 -14 -126 7
-38 19 -12 182 43 272 16 27 28 50 26 53 -3 2 -34 -14 -69 -37 -92 -57 -166
-81 -257 -82 -68 -1 -72 -2 -39 -10 59 -15 169 8 255 53 l73 39 -16 -33 c-26
-50 -44 -126 -44 -190 l0 -59 -57 32 c-32 18 -80 51 -108 74 -66 55 -94 72
-133 80 -22 5 -32 13 -32 26 0 28 66 90 95 90 26 0 33 18 14 37 -7 7 -10 41
-8 92 2 45 4 81 4 81 0 0 -20 -19 -45 -43z"/>
<path d="M1924 3276 c-34 -16 -81 -55 -144 -119 -55 -56 -104 -99 -119 -102
-15 -3 -47 1 -71 10 -74 26 -115 59 -144 116 l-26 52 -16 -39 c-9 -21 -23 -72
-31 -112 -18 -88 -11 -162 21 -226 l22 -44 -37 -11 c-20 -6 -63 -31 -96 -54
-59 -45 -208 -195 -200 -203 2 -3 16 0 31 6 36 13 126 13 181 -1 73 -18 42
-32 -58 -26 l-91 5 72 -35 72 -35 -25 -30 c-47 -56 -67 -180 -40 -249 4 -11
-6 -23 -32 -41 -52 -34 -128 -113 -165 -170 -28 -43 -35 -47 -67 -46 -83 2
-165 -32 -273 -115 -34 -26 -41 -27 -75 -17 -48 13 -271 25 -306 16 -26 -6
-27 -9 -27 -70 0 -35 8 -91 19 -125 21 -66 66 -151 82 -151 5 0 -2 17 -16 39
-14 21 -35 63 -46 92 -22 57 -39 205 -23 197 5 -2 29 -13 54 -25 25 -12 74
-35 110 -52 l65 -30 -40 -1 c-46 0 -87 -19 -45 -21 l25 0 -23 -11 c-12 -6 -22
-15 -22 -20 0 -5 9 -4 19 2 25 13 42 13 19 -1 -10 -5 -18 -15 -18 -20 0 -6 13
-1 29 11 45 31 99 52 106 40 4 -6 -18 -41 -49 -79 -31 -38 -56 -72 -56 -76 0
-4 -14 -23 -31 -43 -36 -41 -64 -100 -75 -156 -6 -34 -5 -38 10 -33 13 5 16 0
16 -26 0 -36 24 -123 40 -147 7 -11 12 -12 17 -3 5 6 8 -28 8 -77 0 -83 1 -89
28 -116 27 -27 29 -33 25 -96 -2 -38 -1 -68 3 -68 3 0 14 33 24 73 10 39 34
106 55 147 53 108 56 125 23 152 -48 41 -63 58 -63 71 0 6 15 35 32 62 l32 50
7 -33 c16 -78 96 -110 138 -56 25 32 27 61 5 92 -12 17 -12 22 -2 23 7 0 4 4
-7 9 -34 15 -121 12 -135 -5 -23 -27 -26 -16 -18 61 15 142 69 220 168 244 44
11 60 10 113 -5 69 -19 132 -53 165 -88 21 -22 21 -25 7 -37 -9 -7 -21 -23
-27 -34 -9 -17 -5 -15 21 7 41 34 53 34 41 1 -15 -38 -12 -53 15 -79 32 -33
60 -31 97 5 31 31 34 59 13 113 -6 14 -1 17 29 17 46 0 54 -18 29 -68 l-19
-38 38 -27 c45 -32 111 -50 164 -45 36 4 39 7 42 36 2 18 7 32 11 32 18 0 -2
183 -26 247 -4 11 -2 14 5 9 7 -4 12 -3 12 3 0 11 -57 61 -70 61 -5 0 -9 8 -9
18 -4 134 -65 344 -118 404 -19 21 -7 55 37 108 27 33 30 34 46 19 14 -15 15
-22 4 -54 -13 -39 -8 -97 12 -140 13 -29 28 -33 28 -7 0 10 7 27 16 38 14 17
15 9 11 -96 -3 -63 -8 -124 -13 -135 l-7 -20 23 20 c12 11 31 38 40 59 l18 39
17 -33 c20 -39 66 -91 198 -224 l99 -98 -4 -59 c-3 -56 6 -77 18 -44 4 8 11
15 16 15 11 0 5 -90 -9 -127 -4 -13 3 -10 25 11 37 35 38 33 22 -77 -11 -72
-33 -126 -74 -175 l-26 -30 -39 37 c-22 20 -56 50 -77 66 -25 20 -49 54 -71
101 -18 40 -40 75 -50 78 -16 6 -16 5 -1 -11 9 -10 34 -51 55 -92 31 -60 48
-81 92 -111 31 -22 62 -53 73 -74 10 -20 24 -36 30 -36 9 0 9 3 1 11 -9 9 -4
22 21 53 64 79 82 144 88 313 2 46 6 83 9 83 3 0 50 -25 105 -55 141 -78 141
-78 280 -11 64 31 119 54 122 52 2 -3 -2 -36 -8 -74 -7 -38 -11 -96 -8 -130 7
-104 78 -183 163 -181 l40 1 -45 9 c-25 5 -56 17 -70 27 -40 29 -80 117 -80
176 0 77 11 82 44 20 16 -30 32 -54 37 -54 5 0 9 18 9 40 0 56 20 140 32 137
6 -1 16 21 22 48 15 60 32 93 60 117 28 23 39 22 33 -2 -3 -11 -2 -20 3 -20 4
0 17 30 29 66 12 36 30 82 40 102 22 45 71 194 71 219 0 10 5 25 10 33 8 13
12 12 31 -7 l22 -22 -22 -68 c-13 -40 -35 -82 -54 -102 -28 -30 -29 -33 -7
-19 35 21 68 84 82 154 11 59 32 95 97 167 25 28 36 35 42 25 14 -21 10 -116
-6 -156 l-15 -37 25 30 c49 59 69 115 70 192 l0 71 45 -5 c63 -7 125 12 168
52 33 31 35 34 15 35 -26 0 -67 17 -104 41 -25 18 -26 19 -21 127 3 75 1 112
-7 116 -6 4 -11 2 -11 -4 0 -11 -38 -8 -160 16 -118 23 -272 79 -435 159 -211
103 -346 196 -483 332 -63 62 -114 113 -115 113 -1 0 -25 -11 -53 -24z m1217
-724 c28 -45 36 -72 22 -72 -13 0 -73 94 -73 113 0 26 17 12 51 -41z m-728
-63 c25 -26 37 -47 37 -67 0 -27 -52 -122 -67 -122 -5 0 -23 22 -41 48 l-33
48 23 83 c18 64 25 78 33 65 6 -9 27 -34 48 -55z m-505 -21 c33 -72 93 -138
152 -168 22 -11 40 -19 40 -18 0 2 -7 21 -15 43 -8 22 -14 55 -15 73 l0 33 48
-39 c76 -64 209 -123 307 -137 39 -5 36 -2 -14 17 -22 8 -19 11 36 38 33 17
86 53 117 80 31 28 61 50 65 50 10 0 31 -90 38 -169 l6 -64 -47 6 c-47 7 -143
-8 -160 -24 -6 -6 -4 -9 5 -9 12 0 12 -2 -1 -10 -11 -7 4 -10 50 -10 36 0 82
-3 103 -6 32 -6 37 -10 37 -32 0 -25 1 -25 44 17 l43 43 5 -49 c3 -27 12 -63
20 -80 15 -29 14 -36 -13 -118 -43 -131 -84 -201 -144 -244 -95 -70 -342 -202
-422 -225 -15 -5 -50 9 -119 45 -209 109 -386 254 -453 372 -29 52 -32 62 -29
134 l3 78 34 -62 c31 -57 98 -139 107 -131 2 3 -5 27 -16 56 -11 28 -21 70
-22 93 l-3 43 85 35 c73 30 97 35 167 35 76 1 102 8 71 19 -7 2 -2 2 10 0 37
-6 16 15 -26 27 -49 13 -141 13 -183 -1 -19 -7 -56 -27 -83 -47 l-49 -34 6 62
c12 112 48 194 119 270 35 37 64 68 65 69 0 0 14 -27 31 -61z m-599 -329 c34
-56 91 -249 91 -311 0 -19 -1 -20 -17 -5 -26 23 -99 52 -170 67 -35 7 -63 18
-63 25 0 33 56 164 86 204 2 2 10 -1 17 -8 12 -9 16 -6 20 19 8 35 17 38 36 9z"/>
<path d="M2250 1964 c0 -8 5 -12 10 -9 6 4 8 11 5 16 -9 14 -15 11 -15 -7z"/>
<path d="M2170 1859 c129 -4 250 -11 269 -14 31 -6 32 -8 18 -22 -8 -9 -57
-31 -109 -49 -51 -18 -85 -33 -76 -33 27 -1 185 59 199 75 9 11 9 18 1 26 -16
16 -184 27 -377 26 -153 -1 -150 -1 75 -9z"/>
<path d="M1935 1810 c11 -12 34 -28 51 -35 44 -18 168 -45 201 -44 19 1 22 3
8 5 -148 31 -209 49 -242 71 -34 23 -36 23 -18 3z"/>
<path d="M1229 2011 c-44 -44 -49 -59 -16 -57 12 1 38 -2 57 -6 23 -4 37 -3
42 5 14 21 9 27 -24 28 l-33 1 35 13 c31 12 32 14 10 14 -14 1 -38 -6 -55 -14
-27 -14 -27 -12 9 20 22 19 34 35 26 35 -7 0 -30 -17 -51 -39z"/>
<path d="M2625 3093 c-22 -12 -53 -23 -69 -23 -25 0 -27 -3 -21 -22 4 -13 9
-49 12 -80 5 -56 6 -57 28 -42 12 8 42 18 66 23 31 5 43 12 40 22 -1 8 -6 43
-10 79 l-6 66 -40 -23z"/>
<path d="M970 2410 c-9 -6 -15 -32 -18 -75 -4 -57 -7 -65 -21 -59 -33 14 -72
16 -101 4 -39 -16 -40 -50 -1 -73 37 -22 131 -33 158 -19 31 17 47 92 33 157
-12 59 -28 79 -50 65z"/>
<path d="M1540 1314 c11 -19 27 -45 34 -57 15 -23 33 -117 21 -105 -8 7 -94
-116 -143 -202 -17 -30 -43 -95 -57 -145 -15 -49 -34 -98 -43 -108 -14 -16
-16 -16 -34 -1 -10 10 -18 12 -18 7 0 -6 7 -16 15 -23 12 -10 22 -9 49 4 19 9
38 16 43 16 4 0 30 16 57 35 27 19 68 42 92 51 24 9 44 21 44 25 0 5 -17 2
-37 -7 -21 -9 -65 -27 -98 -41 -70 -29 -81 -37 -40 -28 l30 6 -35 -20 c-19
-11 -38 -20 -41 -21 -3 0 8 41 25 92 30 88 33 93 78 119 25 15 67 31 92 34 25
4 66 20 91 36 51 32 57 57 28 112 -9 18 -16 37 -15 44 1 6 -13 16 -32 23 -27
9 -35 17 -39 44 -3 18 -22 58 -41 89 -41 63 -57 77 -26 21z m-50 -382 c0 -5
-11 -14 -25 -20 -27 -12 -28 -12 -19 12 6 16 44 23 44 8z"/>
<path d="M1360 1225 c-28 -30 -24 -38 10 -20 14 8 19 14 11 15 -11 0 -11 3 -1
15 20 24 5 17 -20 -10z"/>
<path d="M957 1189 c-4 -15 -11 -20 -23 -15 -15 6 -15 4 -3 -10 8 -9 13 -29
11 -43 -2 -25 -2 -25 8 -3 11 26 16 26 50 7 14 -8 41 -14 60 -13 25 0 28 2 10
5 -14 2 -44 11 -68 19 -40 15 -43 18 -37 45 8 33 0 40 -8 8z"/>
<path d="M2694 1199 c-38 -9 -42 -13 -48 -47 -15 -95 -101 -211 -226 -305 -91
-69 -221 -149 -234 -144 -7 3 -31 33 -52 66 -68 107 -98 144 -154 190 -30 24
-73 66 -94 93 -57 69 -65 59 -9 -12 25 -33 49 -60 53 -60 17 0 133 -117 157
-158 32 -55 154 -231 268 -387 44 -60 102 -139 128 -174 26 -36 47 -60 47 -54
0 6 -7 16 -15 23 -21 17 -19 34 7 56 21 19 21 19 15 -5 l-6 -23 22 20 c37 35
128 72 177 72 l45 0 -32 -20 c-37 -22 -42 -30 -14 -23 46 12 202 -71 186 -98
-4 -5 1 -9 10 -9 20 0 119 -74 105 -78 -6 -2 0 -12 13 -22 13 -10 36 -37 51
-59 l29 -41 343 0 c207 0 344 4 344 9 0 25 -25 69 -60 108 -22 23 -40 51 -40
60 0 33 -178 547 -231 666 -37 86 -64 130 -94 161 -79 79 -217 135 -382 157
-48 6 -104 17 -123 24 -51 19 -138 25 -186 14z"/>
<path d="M1302 1128 c-44 -58 -74 -113 -66 -120 2 -3 -4 -29 -16 -57 -11 -29
-16 -50 -11 -47 9 6 52 122 57 154 1 7 15 29 31 49 42 53 56 73 50 73 -2 0
-23 -24 -45 -52z"/>
<path d="M1330 970 c-9 -6 -10 -10 -3 -10 6 0 15 5 18 10 8 12 4 12 -15 0z"/>
<path d="M1742 910 c0 -19 2 -27 5 -17 2 9 2 25 0 35 -3 9 -5 1 -5 -18z"/>
<path d="M1160 824 c-14 -36 -12 -57 5 -80 14 -18 14 -17 4 9 -9 20 -9 36 -2
62 13 40 7 47 -7 9z"/>
<path d="M1200 761 c0 -17 4 -32 8 -35 4 -2 6 11 4 30 -5 42 -12 45 -12 5z"/>
<path d="M1251 748 c-1 -29 4 -40 22 -49 21 -11 21 -11 5 7 -9 10 -18 33 -21
49 -4 27 -4 27 -6 -7z"/>
<path d="M734 752 c23 -26 36 -28 36 -5 0 15 2 14 20 -2 22 -20 104 -33 113
-18 4 6 -8 9 -31 7 -20 -1 -42 2 -49 8 -7 6 -13 7 -13 3 0 -5 -9 0 -21 11 -17
15 -22 16 -29 4 -7 -12 -11 -12 -27 0 -16 13 -16 12 1 -8z"/>
<path d="M925 720 c7 -11 45 -20 45 -10 0 4 -11 10 -25 12 -13 3 -22 2 -20 -2z"/>
<path d="M486 669 c-9 -29 -15 -71 -15 -93 1 -35 3 -32 9 19 5 33 13 73 19 89
7 16 9 31 7 33 -3 3 -12 -19 -20 -48z"/>
<path d="M2010 690 c-6 -11 -8 -20 -6 -20 3 0 10 9 16 20 6 11 8 20 6 20 -3 0
-10 -9 -16 -20z"/>
<path d="M1143 678 c-48 -10 -65 -32 -52 -65 23 -61 152 -70 358 -24 71 16
149 39 173 50 47 23 49 24 -137 -27 -107 -28 -149 -35 -236 -36 -92 -1 -110 2
-128 18 -23 21 -28 51 -10 62 6 4 35 12 63 19 59 15 32 18 -31 3z"/>
<path d="M703 565 c0 -38 2 -53 4 -32 2 20 2 52 0 70 -2 17 -4 1 -4 -38z"/>
<path d="M1860 559 c-19 -5 -72 -7 -116 -3 -75 5 -88 3 -159 -25 -63 -26 -90
-31 -153 -31 -42 1 -95 7 -117 15 -52 19 -57 12 -5 -9 27 -11 71 -16 130 -16
50 0 90 -4 90 -9 0 -5 -5 -22 -10 -37 -9 -24 -8 -26 9 -21 17 4 18 1 10 -26
-9 -33 -5 -47 16 -47 10 0 8 -14 -12 -56 -22 -49 -24 -64 -19 -122 11 -116 17
-142 32 -142 8 0 11 -6 8 -15 -5 -13 11 -15 111 -15 113 0 116 1 110 20 -7 23
-10 128 -4 134 2 2 52 2 110 -1 l107 -6 -22 -46 c-41 -87 -39 -85 -108 -92
-36 -3 24 -7 145 -7 l207 -2 -107 208 c-59 114 -126 242 -148 284 -42 81 -44
83 -105 67z"/>
<path d="M463 455 c0 -33 2 -45 4 -27 2 18 2 45 0 60 -2 15 -4 0 -4 -33z"/>
<path d="M720 350 c-5 -104 -5 -105 -30 -105 -14 0 -30 -7 -36 -15 -10 -12
-14 -12 -28 -1 -11 9 -16 10 -16 2 0 -16 -21 -13 -43 6 -19 17 -20 17 -14 1
10 -29 -19 -21 -47 13 -14 17 -28 40 -31 52 -2 12 -6 31 -8 42 -3 14 -5 12 -6
-8 -1 -37 21 -78 59 -111 l32 -26 -31 -81 c-40 -104 -41 -143 -2 -106 11 9 13
9 7 0 -5 -10 8 -13 56 -13 l64 0 12 44 c6 25 22 55 34 67 l23 21 -32 -16 c-18
-9 -34 -16 -37 -16 -13 0 41 117 62 135 22 19 23 26 20 120 l-3 100 -5 -105z"/>
<path d="M2561 203 c-11 -10 -38 -58 -60 -108 l-40 -90 146 -3 c80 -1 148 -1
150 1 12 12 -46 125 -87 168 -49 53 -75 60 -109 32z"/>
</g>
</svg>
